<?xml version="1.0" encoding="utf-8"?>
<!-- Generator: Adobe Illustrator 19.0.0, SVG Export Plug-In . SVG Version: 6.00 Build 0)  -->
<svg version="1.1" id="Layer_1" xmlns="http://www.w3.org/2000/svg" xmlns:xlink="http://www.w3.org/1999/xlink" x="0px" y="0px"
	 viewBox="0 0 500 500" style="enable-background:new 0 0 500 500;" xml:space="preserve">
<style type="text/css">
	.st0{fill:#002F87;}
</style>
<g id="XMLID_1_">
	<g id="XMLID_2_">
		<path id="XMLID_13_" class="st0" d="M97.2,222.9h20.1v29c0,6.1-0.7,10.7-2,13.9c-1.3,3.2-4,5.9-7.9,8.1c-4,2.2-9.1,3.3-15.3,3.3
			c-6.6,0-11.6-0.7-15.2-2.2c-3.6-1.5-6.4-3.6-8.4-6.4c-1.6-2.3-2.6-4.9-3.2-8.1c-0.1-0.8-0.3-2.3-0.4-3.5l19.3-1
			c0,2.4,0.3,4.1,0.7,5.3c0.5,1.1,1.3,2.1,2.4,2.8c0.8,0.5,1.8,0.7,3.3,0.7c2.2,0,3.9-0.7,4.9-2c1-1.4,1.6-3.7,1.6-6.9V222.9z"/>
		<path id="XMLID_3_" class="st0" d="M238.9,265.6c3,4.1,6.9,7.2,11.7,9.1c4.8,1.9,10.9,2.9,18.2,2.9c7.2,0,13.2-1.1,18.1-3.3
			c4.8-2.2,8.5-5.3,11.1-9.3c2.6-4,3.8-9.1,3.8-15.3c0-8.6-2.9-15.3-8.8-20c-5.9-4.8-14.2-7.1-25-7.1c-10.5,0-18.8,2.4-24.7,7.3
			c-5.9,4.8-8.9,11.6-8.9,20.3C234.4,256.3,235.9,261.5,238.9,265.6z M258.1,238.4c2.5-2.3,5.7-3.5,9.8-3.5c4.2,0,7.6,1.2,10.1,3.5
			c2.5,2.3,3.7,6,3.7,11c0,6-1.2,10.1-3.5,12.4c-2.4,2.3-5.7,3.5-10,3.5c-4.2,0-7.5-1.2-10-3.5c-2.4-2.3-3.7-6.2-3.7-11.6
			C254.4,244.7,255.6,240.8,258.1,238.4z"/>
		<polygon id="XMLID_10_" class="st0" points="161.9,223.3 139.9,223.3 115.5,276.7 136,276.7 150.6,237.2 157.8,256.3 147.2,256.3 
			142.9,267.9 161.9,267.9 165.2,276.7 186.2,276.7 		"/>
		<path id="XMLID_4_" class="st0" d="M306.7,223.4h37.6c6.3,0,11.1,1.3,14.4,3.8c3.4,2.5,5,5.7,5,9.4c0,3.1-1.2,5.8-3.6,8.1
			c-1.6,1.5-3.9,2.7-7,3.6c4.7,0.9,8.1,2.5,10.3,4.7c2.2,2.2,3.3,5.1,3.3,8.4c0,2.8-0.8,5.3-2.3,7.5c-1.6,2.2-3.7,4-6.4,5.2
			c-1.7,0.8-4.2,1.4-7.6,1.7c-4.5,0.5-7.5,0.7-9,0.7h-34.7V223.4z M326.9,244.2h8.8c3.1,0,5.3-0.4,6.6-1.3c1.2-0.9,1.8-2.2,1.8-3.8
			c0-1.5-0.6-2.8-1.8-3.6c-1.2-0.9-3.4-1.3-6.4-1.3h-8.9V244.2z M326.9,265.2h10.3c3.5,0,5.9-0.5,7.3-1.5c1.4-1,2.1-2.4,2.1-4.1
			c0-1.6-0.7-2.8-2.1-3.8c-1.4-1-3.9-1.4-7.4-1.4h-10.2V265.2z"/>
		<path id="XMLID_6_" class="st0" d="M368.1,259l19.1-1c0.4,2.6,1.3,4.5,2.5,5.8c2.1,2.2,5,3.2,8.9,3.2c2.9,0,5.1-0.6,6.6-1.7
			c1.6-1.1,2.3-2.4,2.3-3.8c0-1.4-0.7-2.6-2.2-3.7c-1.5-1.1-4.9-2.1-10.3-3.1c-8.8-1.6-15.1-3.8-18.8-6.5c-3.8-2.7-5.7-6.1-5.7-10.3
			c0-2.7,1-5.3,2.9-7.8c1.9-2.4,4.8-4.4,8.7-5.7c3.9-1.4,9.2-2.1,16-2.1c8.3,0,14.6,1.3,19,3.8c4.3,2.5,6.9,6.6,7.8,12.1l-18.9,0.9
			c-0.5-2.4-1.6-4.2-3.2-5.3c-1.6-1.1-3.8-1.6-6.7-1.6c-2.3,0-4.1,0.4-5.3,1.2c-1.2,0.8-1.8,1.8-1.8,3c0,0.9,0.5,1.6,1.5,2.3
			c1,0.7,3.2,1.4,6.7,2c8.8,1.6,15,3.1,18.8,4.7c3.8,1.6,6.6,3.6,8.3,5.9c1.7,2.4,2.6,5,2.6,7.9c0,3.4-1.2,6.6-3.5,9.5
			c-2.3,2.9-5.5,5.1-9.7,6.6c-4.1,1.5-9.3,2.2-15.6,2.2c-11,0-18.7-1.7-22.9-5.2C371,268.8,368.6,264.4,368.1,259z"/>
		<path id="XMLID_5_" class="st0" d="M229.6,260.9c-2.7,2.1-7.3,4.3-13.6,4.4c-4.2,0-7.5-1.2-10-3.5c-2.4-2.3-3.7-6.2-3.7-11.6
			c0-5.4,1.2-9.3,3.7-11.7c2.1-2.1,6-3.6,9.6-3.7c5.4-0.1,8.5,0.6,13.8,4.4c1.8-3.5,4.6-8.5,6.8-11.5c-0.6-0.4-1.2-0.8-1.8-1.1
			c-4.7-2.7-11.1-4.1-19.3-4.1c-10.5,0-18.5,2.4-24.3,7.1c-5.7,4.7-8.6,11.5-8.6,20.3c0,6.6,1.6,12,4.9,16.3
			c3.3,4.2,7.1,7.2,11.6,8.9c4.5,1.7,10.3,2.5,17.3,2.5c8.2,0,14.4-1.4,20.2-5.1C236.3,272.5,232.5,267,229.6,260.9L229.6,260.9z"/>
	</g>
	<g id="XMLID_14_">
		<path id="XMLID_15_" class="st0" d="M430.8,222.7c2.3,0,4.2,1.8,4.2,4.1c0,2.4-1.9,4.2-4.2,4.2c-2.3,0-4.2-1.8-4.2-4.2
			C426.7,224.4,428.6,222.7,430.8,222.7z M430.8,230.4c1.9,0,3.4-1.5,3.4-3.6c0-2-1.5-3.5-3.4-3.5c-1.9,0-3.4,1.5-3.4,3.5
			C427.4,228.8,428.9,230.4,430.8,230.4z M429.2,224.4h1.9c1.2,0,1.7,0.5,1.7,1.4c0,0.9-0.6,1.2-1.3,1.3l1.4,2.1h-0.8l-1.3-2.1H430
			v2.1h-0.8V224.4z M430,226.5h0.8c0.7,0,1.3,0,1.3-0.8c0-0.6-0.6-0.7-1.1-0.7h-1V226.5z"/>
	</g>
</g>
</svg>
